<mxfile host="app.diagrams.net" agent="Mozilla/5.0 (Macintosh; Intel Mac OS X 10_15_7) AppleWebKit/537.36 (KHTML, like Gecko) Chrome/128.0.0.0 Safari/537.36" version="24.7.10">
  <diagram name="Page-1" id="74e2e168-ea6b-b213-b513-2b3c1d86103e">
    <mxGraphModel dx="1918" dy="1125" grid="1" gridSize="10" guides="1" tooltips="1" connect="1" arrows="1" fold="1" page="1" pageScale="1" pageWidth="1100" pageHeight="850" background="none" math="0" shadow="0">
      <root>
        <mxCell id="0" />
        <mxCell id="1" parent="0" />
        <mxCell id="77e6c97f196da883-1" value="BIỂU ĐỒ HOẠT ĐỘNG CỦA CHỨC NĂNG MƯỢN SÁCH" style="swimlane;html=1;childLayout=stackLayout;startSize=20;rounded=0;shadow=0;labelBackgroundColor=none;strokeWidth=1;fontFamily=Verdana;fontSize=8;align=center;" parent="1" vertex="1">
          <mxGeometry x="70" y="40" width="590" height="750" as="geometry" />
        </mxCell>
        <mxCell id="77e6c97f196da883-2" value="Người đọc" style="swimlane;html=1;startSize=20;" parent="77e6c97f196da883-1" vertex="1">
          <mxGeometry y="20" width="320" height="730" as="geometry" />
        </mxCell>
        <mxCell id="4uTvOuOKNcZ2df3uVuay-1" value="Yêu cầu mượn sách" style="rounded=1;whiteSpace=wrap;html=1;" vertex="1" parent="77e6c97f196da883-2">
          <mxGeometry x="75" y="50" width="120" height="60" as="geometry" />
        </mxCell>
        <mxCell id="4uTvOuOKNcZ2df3uVuay-6" value="" style="ellipse;whiteSpace=wrap;html=1;rounded=1;" vertex="1" parent="77e6c97f196da883-2">
          <mxGeometry x="220" y="140" width="20" height="20" as="geometry" />
        </mxCell>
        <mxCell id="77e6c97f196da883-3" value="Thủ thư" style="swimlane;html=1;startSize=20;" parent="77e6c97f196da883-1" vertex="1">
          <mxGeometry x="320" y="20" width="270" height="730" as="geometry" />
        </mxCell>
        <mxCell id="4uTvOuOKNcZ2df3uVuay-2" value="Yêu cầu xuất trình thẻ thư viện" style="rounded=1;whiteSpace=wrap;html=1;" vertex="1" parent="77e6c97f196da883-3">
          <mxGeometry x="75" y="120" width="120" height="60" as="geometry" />
        </mxCell>
        <mxCell id="4uTvOuOKNcZ2df3uVuay-3" value="" style="edgeStyle=orthogonalEdgeStyle;rounded=0;orthogonalLoop=1;jettySize=auto;html=1;" edge="1" parent="77e6c97f196da883-1" source="4uTvOuOKNcZ2df3uVuay-1" target="4uTvOuOKNcZ2df3uVuay-2">
          <mxGeometry relative="1" as="geometry" />
        </mxCell>
        <mxCell id="4uTvOuOKNcZ2df3uVuay-7" value="" style="edgeStyle=orthogonalEdgeStyle;rounded=0;orthogonalLoop=1;jettySize=auto;html=1;" edge="1" parent="77e6c97f196da883-1" source="4uTvOuOKNcZ2df3uVuay-2" target="4uTvOuOKNcZ2df3uVuay-6">
          <mxGeometry relative="1" as="geometry" />
        </mxCell>
      </root>
    </mxGraphModel>
  </diagram>
</mxfile>
